<svg width="97" height="22" viewBox="0 0 97 22" fill="none" xmlns="http://www.w3.org/2000/svg">
<path opacity="0.75" d="M0.3125 21V0.636363H9.10227C10.6136 0.636363 11.9361 0.934659 13.0696 1.53125C14.2031 2.12784 15.0848 2.96638 15.7145 4.04688C16.3442 5.12737 16.6591 6.39015 16.6591 7.83523C16.6591 9.29356 16.3343 10.5563 15.6847 11.6236C15.0417 12.6908 14.1368 13.5128 12.9702 14.0895C11.8101 14.6662 10.4545 14.9545 8.90341 14.9545H3.65341V10.6591H7.78977C8.43939 10.6591 8.9929 10.5464 9.45028 10.321C9.9143 10.089 10.2689 9.76089 10.5142 9.33665C10.7661 8.9124 10.892 8.41193 10.892 7.83523C10.892 7.25189 10.7661 6.75473 10.5142 6.34375C10.2689 5.92614 9.9143 5.60795 9.45028 5.3892C8.9929 5.16382 8.43939 5.05114 7.78977 5.05114H5.84091V21H0.3125ZM24.2557 0.636363V21H18.767V0.636363H24.2557ZM31.3079 21.2386C30.3335 21.2386 29.4717 21.0795 28.7227 20.7614C27.9802 20.4366 27.3969 19.946 26.9727 19.2898C26.5484 18.6335 26.3363 17.7983 26.3363 16.7841C26.3363 15.9489 26.4788 15.2363 26.7638 14.6463C27.0489 14.0497 27.4466 13.5625 27.957 13.1847C28.4674 12.8068 29.0607 12.5185 29.7369 12.3196C30.4196 12.1207 31.1554 11.9915 31.9442 11.9318C32.7994 11.8655 33.4854 11.786 34.0025 11.6932C34.5262 11.5937 34.904 11.4579 35.136 11.2855C35.368 11.1065 35.484 10.8712 35.484 10.5795V10.5398C35.484 10.142 35.3316 9.83712 35.0266 9.625C34.7217 9.41288 34.3306 9.30682 33.8533 9.30682C33.3297 9.30682 32.9021 9.42282 32.5707 9.65483C32.2459 9.88021 32.0503 10.2282 31.984 10.6989H26.9329C26.9992 9.77083 27.2942 8.91572 27.8178 8.13352C28.3481 7.3447 29.1204 6.71496 30.1346 6.24432C31.1488 5.76705 32.4149 5.52841 33.9329 5.52841C35.0266 5.52841 36.0077 5.65767 36.8761 5.91619C37.7444 6.16809 38.4835 6.52273 39.0934 6.98011C39.7032 7.43087 40.1673 7.96117 40.4854 8.57102C40.8103 9.17424 40.9727 9.83049 40.9727 10.5398V21H35.842V18.8523H35.7227C35.4177 19.4223 35.0465 19.883 34.609 20.2344C34.1781 20.5857 33.6843 20.8409 33.1275 21C32.5773 21.1591 31.9708 21.2386 31.3079 21.2386ZM33.0977 17.7784C33.5153 17.7784 33.9064 17.6922 34.271 17.5199C34.6422 17.3475 34.9438 17.099 35.1758 16.7741C35.4078 16.4493 35.5238 16.0549 35.5238 15.5909V14.3182C35.378 14.3778 35.2222 14.4342 35.0565 14.4872C34.8974 14.5402 34.725 14.59 34.5394 14.6364C34.3604 14.6828 34.1682 14.7259 33.9627 14.7656C33.7639 14.8054 33.555 14.8419 33.3363 14.875C32.9121 14.9413 32.564 15.0507 32.2923 15.2031C32.0271 15.349 31.8282 15.5312 31.6957 15.75C31.5697 15.9621 31.5067 16.2008 31.5067 16.4659C31.5067 16.8902 31.6559 17.215 31.9542 17.4403C32.2525 17.6657 32.6336 17.7784 33.0977 17.7784ZM49.0838 12.4091V21H43.5952V5.72727H48.8054V8.63068H48.9645C49.2959 7.66288 49.8793 6.90388 50.7145 6.35369C51.5563 5.8035 52.5374 5.52841 53.6577 5.52841C54.7382 5.52841 55.6761 5.77699 56.4716 6.27415C57.2737 6.76468 57.8935 7.44081 58.331 8.30256C58.7751 9.1643 58.9938 10.1487 58.9872 11.2557V21H53.4986V12.4091C53.5052 11.6534 53.313 11.0601 52.9219 10.6293C52.5374 10.1984 52.0005 9.98295 51.3111 9.98295C50.8603 9.98295 50.4659 10.0824 50.1278 10.2812C49.7964 10.4735 49.5412 10.7519 49.3622 11.1165C49.1832 11.4744 49.0904 11.9053 49.0838 12.4091ZM70.8047 5.72727V9.70455H60.7422V5.72727H70.8047ZM62.6911 2.06818H68.1797V16.0881C68.1797 16.3002 68.2161 16.4792 68.2891 16.625C68.362 16.7642 68.4747 16.8703 68.6271 16.9432C68.7796 17.0095 68.9751 17.0426 69.2138 17.0426C69.3795 17.0426 69.5717 17.0227 69.7905 16.983C70.0159 16.9432 70.1816 16.91 70.2876 16.8835L71.0831 20.7415C70.8378 20.8144 70.4865 20.9039 70.0291 21.0099C69.5784 21.116 69.0414 21.1856 68.4183 21.2188C67.1589 21.285 66.1016 21.1558 65.2464 20.831C64.3913 20.4995 63.7483 19.9792 63.3175 19.2699C62.8866 18.5606 62.6778 17.6723 62.6911 16.6051V2.06818ZM80.2383 21.2784C78.5811 21.2784 77.1625 20.9503 75.9826 20.294C74.8027 19.6312 73.8978 18.7098 73.2681 17.5298C72.6384 16.3433 72.3235 14.9678 72.3235 13.4034C72.3235 11.839 72.6384 10.4669 73.2681 9.28693C73.8978 8.10038 74.8027 7.17898 75.9826 6.52273C77.1625 5.85985 78.5811 5.52841 80.2383 5.52841C81.8955 5.52841 83.314 5.85985 84.494 6.52273C85.6739 7.17898 86.5787 8.10038 87.2085 9.28693C87.8382 10.4669 88.1531 11.839 88.1531 13.4034C88.1531 14.9678 87.8382 16.3433 87.2085 17.5298C86.5787 18.7098 85.6739 19.6312 84.494 20.294C83.314 20.9503 81.8955 21.2784 80.2383 21.2784ZM80.2781 17.2216C80.7421 17.2216 81.1431 17.0658 81.4812 16.7543C81.8192 16.4427 82.0811 15.9986 82.2667 15.4219C82.4523 14.8452 82.5451 14.1591 82.5451 13.3636C82.5451 12.5616 82.4523 11.8755 82.2667 11.3054C82.0811 10.7287 81.8192 10.2846 81.4812 9.97301C81.1431 9.66146 80.7421 9.50568 80.2781 9.50568C79.7875 9.50568 79.3666 9.66146 79.0153 9.97301C78.6639 10.2846 78.3955 10.7287 78.2099 11.3054C78.0243 11.8755 77.9315 12.5616 77.9315 13.3636C77.9315 14.1591 78.0243 14.8452 78.2099 15.4219C78.3955 15.9986 78.6639 16.4427 79.0153 16.7543C79.3666 17.0658 79.7875 17.2216 80.2781 17.2216ZM93.3633 21.3182C92.5943 21.3182 91.9348 21.0497 91.3846 20.5128C90.841 19.9692 90.5726 19.3097 90.5792 18.5341C90.5726 17.7784 90.841 17.1321 91.3846 16.5952C91.9348 16.0582 92.5943 15.7898 93.3633 15.7898C94.0924 15.7898 94.7354 16.0582 95.2923 16.5952C95.8557 17.1321 96.1407 17.7784 96.1474 18.5341C96.1407 19.0511 96.0049 19.5218 95.7397 19.946C95.4812 20.3636 95.1431 20.6984 94.7255 20.9503C94.3079 21.1955 93.8538 21.3182 93.3633 21.3182Z" fill="white"/>
</svg>
